<mxfile host="65bd71144e">
    <diagram id="MBpAZgFTPIW1Hojuifpr" name="Page-1">
        <mxGraphModel dx="906" dy="1791" grid="1" gridSize="10" guides="1" tooltips="1" connect="1" arrows="1" fold="1" page="1" pageScale="1" pageWidth="827" pageHeight="1169" math="0" shadow="0">
            <root>
                <mxCell id="0"/>
                <mxCell id="1" parent="0"/>
                <mxCell id="30" value="" style="rounded=0;whiteSpace=wrap;html=1;fontColor=#FFFFFF;fillColor=none;" vertex="1" parent="1">
                    <mxGeometry x="1180" y="150" width="360" height="140" as="geometry"/>
                </mxCell>
                <mxCell id="50" value="&lt;font color=&quot;#ffffff&quot;&gt;くるまのあしあとアプリケーション&lt;/font&gt;" style="rounded=0;whiteSpace=wrap;html=1;fontColor=#000000;fillColor=none;verticalAlign=top;" vertex="1" parent="1">
                    <mxGeometry x="310" y="100" width="1260" height="720" as="geometry"/>
                </mxCell>
                <mxCell id="24" value="" style="rounded=0;whiteSpace=wrap;html=1;fontColor=#FFFFFF;fillColor=none;" vertex="1" parent="1">
                    <mxGeometry x="760" y="150" width="360" height="630" as="geometry"/>
                </mxCell>
                <mxCell id="62" value="" style="rounded=0;whiteSpace=wrap;html=1;fontColor=#FFFFFF;fillColor=none;strokeColor=#FF9999;strokeWidth=3;" vertex="1" parent="1">
                    <mxGeometry x="767.5" y="180" width="345" height="380" as="geometry"/>
                </mxCell>
                <mxCell id="59" value="" style="rounded=0;whiteSpace=wrap;html=1;fontColor=#FFFFFF;fillColor=none;dashed=1;" vertex="1" parent="1">
                    <mxGeometry x="767.5" y="570" width="345" height="190" as="geometry"/>
                </mxCell>
                <mxCell id="18" value="" style="rounded=0;whiteSpace=wrap;html=1;fontColor=#000000;fillColor=none;" vertex="1" parent="1">
                    <mxGeometry x="340" y="150" width="360" height="430" as="geometry"/>
                </mxCell>
                <mxCell id="4" value="ユーザー" style="shape=umlActor;verticalLabelPosition=bottom;verticalAlign=top;html=1;fillColor=none;" vertex="1" parent="1">
                    <mxGeometry x="60" y="220" width="30" height="60" as="geometry"/>
                </mxCell>
                <mxCell id="6" value="あしあとを記録する" style="ellipse;whiteSpace=wrap;html=1;fillColor=none;" vertex="1" parent="1">
                    <mxGeometry x="785" y="380" width="140" height="70" as="geometry"/>
                </mxCell>
                <mxCell id="7" value="" style="endArrow=none;html=1;entryX=0;entryY=0.5;entryDx=0;entryDy=0;" edge="1" parent="1" target="18">
                    <mxGeometry relative="1" as="geometry">
                        <mxPoint x="100" y="260" as="sourcePoint"/>
                        <mxPoint x="350" y="204.5" as="targetPoint"/>
                    </mxGeometry>
                </mxCell>
                <mxCell id="10" value="あしあとを閲覧する" style="ellipse;whiteSpace=wrap;html=1;fillColor=none;" vertex="1" parent="1">
                    <mxGeometry x="360" y="280" width="140" height="70" as="geometry"/>
                </mxCell>
                <mxCell id="11" value="あしあとを検索する" style="ellipse;whiteSpace=wrap;html=1;fillColor=none;" vertex="1" parent="1">
                    <mxGeometry x="530" y="280" width="140" height="70" as="geometry"/>
                </mxCell>
                <mxCell id="12" value="あしあとを編集する" style="ellipse;whiteSpace=wrap;html=1;fillColor=none;" vertex="1" parent="1">
                    <mxGeometry x="955" y="380" width="140" height="70" as="geometry"/>
                </mxCell>
                <mxCell id="13" value="&lt;div style=&quot;text-align: left;&quot;&gt;&lt;span style=&quot;color: rgb(0, 0, 0); background-color: initial;&quot;&gt;あしあとの閲覧と検索は、TOP画面とマイページ画面の2種類ある&lt;/span&gt;&lt;/div&gt;&lt;div style=&quot;text-align: left;&quot;&gt;&lt;span style=&quot;color: rgb(0, 0, 0); background-color: initial;&quot;&gt;&lt;br&gt;&lt;/span&gt;&lt;/div&gt;&lt;font color=&quot;#000000&quot;&gt;&lt;div style=&quot;text-align: left;&quot;&gt;&lt;span style=&quot;background-color: initial;&quot;&gt;・TOPページでは、他ユーザーが投稿した、公開されたあしあとを検索・閲覧できる&lt;/span&gt;&lt;/div&gt;&lt;div style=&quot;text-align: left;&quot;&gt;&lt;span style=&quot;background-color: initial;&quot;&gt;・マイページでは、自分が投稿したあしあとの検索・閲覧ができる&lt;/span&gt;&lt;/div&gt;&lt;/font&gt;" style="shape=note;whiteSpace=wrap;html=1;backgroundOutline=1;darkOpacity=0.05;fillColor=#fad9d5;strokeColor=#ae4132;" vertex="1" parent="1">
                    <mxGeometry x="1010" y="-80" width="213" height="145" as="geometry"/>
                </mxCell>
                <mxCell id="15" value="&lt;div style=&quot;text-align: left;&quot;&gt;&lt;span style=&quot;color: rgb(0, 0, 0); background-color: initial;&quot;&gt;マイページのあしあとの編集では、写真とコメントを投稿できる&lt;/span&gt;&lt;/div&gt;" style="shape=note;whiteSpace=wrap;html=1;backgroundOutline=1;darkOpacity=0.05;fillColor=#fad9d5;strokeColor=#ae4132;" vertex="1" parent="1">
                    <mxGeometry x="1180" y="420" width="200" height="80" as="geometry"/>
                </mxCell>
                <mxCell id="19" value="&lt;font color=&quot;#ffffff&quot;&gt;TOP画面&lt;/font&gt;" style="text;html=1;strokeColor=none;fillColor=none;align=center;verticalAlign=middle;whiteSpace=wrap;rounded=0;dashed=1;fontColor=#000000;" vertex="1" parent="1">
                    <mxGeometry x="465" y="150" width="110" height="30" as="geometry"/>
                </mxCell>
                <mxCell id="21" value="あしあとを閲覧する" style="ellipse;whiteSpace=wrap;html=1;fillColor=none;" vertex="1" parent="1">
                    <mxGeometry x="785" y="290" width="140" height="70" as="geometry"/>
                </mxCell>
                <mxCell id="22" value="あしあとを検索する" style="ellipse;whiteSpace=wrap;html=1;fillColor=none;" vertex="1" parent="1">
                    <mxGeometry x="955" y="290" width="140" height="70" as="geometry"/>
                </mxCell>
                <mxCell id="25" value="&lt;font color=&quot;#ffffff&quot;&gt;マイページ画面&lt;/font&gt;" style="text;html=1;strokeColor=none;fillColor=none;align=center;verticalAlign=middle;whiteSpace=wrap;rounded=0;dashed=1;fontColor=#000000;" vertex="1" parent="1">
                    <mxGeometry x="885" y="150" width="110" height="30" as="geometry"/>
                </mxCell>
                <mxCell id="27" value="&lt;div style=&quot;&quot;&gt;&lt;font color=&quot;#000000&quot;&gt;あしあと関連機能&lt;/font&gt;&lt;/div&gt;&lt;div style=&quot;&quot;&gt;&lt;font color=&quot;#000000&quot;&gt;・記録を開始する&lt;/font&gt;&lt;/div&gt;&lt;div style=&quot;&quot;&gt;&lt;font color=&quot;#000000&quot;&gt;・軌跡を表示する&lt;/font&gt;&lt;/div&gt;&lt;div style=&quot;&quot;&gt;&lt;font color=&quot;#000000&quot;&gt;・写真を登録する&lt;/font&gt;&lt;/div&gt;&lt;div style=&quot;&quot;&gt;&lt;font color=&quot;#000000&quot;&gt;・コメントを登録する&lt;/font&gt;&lt;/div&gt;" style="shape=note;whiteSpace=wrap;html=1;backgroundOutline=1;darkOpacity=0.05;fillColor=#fad9d5;strokeColor=#ae4132;align=left;" vertex="1" parent="1">
                    <mxGeometry x="560" y="620" width="170" height="110" as="geometry"/>
                </mxCell>
                <mxCell id="64" value="" style="edgeStyle=none;html=1;fontColor=#FFFFFF;" edge="1" parent="1" source="32" target="63">
                    <mxGeometry relative="1" as="geometry"/>
                </mxCell>
                <mxCell id="34" value="ユーザーの情報を&lt;br&gt;管理する" style="ellipse;whiteSpace=wrap;html=1;fillColor=none;" vertex="1" parent="1">
                    <mxGeometry x="1205" y="190" width="140" height="70" as="geometry"/>
                </mxCell>
                <mxCell id="35" value="あしあとーの情報を&lt;br&gt;管理する" style="ellipse;whiteSpace=wrap;html=1;fillColor=none;" vertex="1" parent="1">
                    <mxGeometry x="1370" y="190" width="140" height="70" as="geometry"/>
                </mxCell>
                <mxCell id="36" value="" style="endArrow=none;dashed=1;html=1;dashPattern=1 3;strokeWidth=2;fontColor=#000000;exitX=0;exitY=0.5;exitDx=0;exitDy=0;exitPerimeter=0;entryX=1;entryY=0.5;entryDx=0;entryDy=0;" edge="1" parent="1" source="13" target="11">
                    <mxGeometry width="50" height="50" relative="1" as="geometry">
                        <mxPoint x="460" y="500" as="sourcePoint"/>
                        <mxPoint x="510" y="450" as="targetPoint"/>
                    </mxGeometry>
                </mxCell>
                <mxCell id="37" value="" style="endArrow=none;dashed=1;html=1;dashPattern=1 3;strokeWidth=2;fontColor=#000000;entryX=1;entryY=0.5;entryDx=0;entryDy=0;exitX=0.995;exitY=0.528;exitDx=0;exitDy=0;exitPerimeter=0;" edge="1" parent="1" source="13" target="22">
                    <mxGeometry width="50" height="50" relative="1" as="geometry">
                        <mxPoint x="760" y="140" as="sourcePoint"/>
                        <mxPoint x="680" y="225" as="targetPoint"/>
                    </mxGeometry>
                </mxCell>
                <mxCell id="38" value="" style="endArrow=none;dashed=1;html=1;dashPattern=1 3;strokeWidth=2;fontColor=#000000;entryX=1;entryY=0.5;entryDx=0;entryDy=0;exitX=0;exitY=0.5;exitDx=0;exitDy=0;exitPerimeter=0;" edge="1" parent="1" source="15" target="12">
                    <mxGeometry width="50" height="50" relative="1" as="geometry">
                        <mxPoint x="750" y="557.5" as="sourcePoint"/>
                        <mxPoint x="685" y="492.5" as="targetPoint"/>
                    </mxGeometry>
                </mxCell>
                <mxCell id="39" value="" style="endArrow=none;dashed=1;html=1;dashPattern=1 3;strokeWidth=2;fontColor=#000000;entryX=0;entryY=0.5;entryDx=0;entryDy=0;exitX=0.465;exitY=0.014;exitDx=0;exitDy=0;exitPerimeter=0;" edge="1" parent="1" source="27" target="6">
                    <mxGeometry width="50" height="50" relative="1" as="geometry">
                        <mxPoint x="770" y="385" as="sourcePoint"/>
                        <mxPoint x="685" y="485" as="targetPoint"/>
                    </mxGeometry>
                </mxCell>
                <mxCell id="41" value="" style="endArrow=none;html=1;entryX=1;entryY=0.5;entryDx=0;entryDy=0;" edge="1" parent="1" target="30">
                    <mxGeometry relative="1" as="geometry">
                        <mxPoint x="1700" y="200" as="sourcePoint"/>
                        <mxPoint x="340" y="580" as="targetPoint"/>
                    </mxGeometry>
                </mxCell>
                <mxCell id="42" value="会員登録する・&lt;br&gt;ログインする" style="ellipse;whiteSpace=wrap;html=1;fillColor=none;" vertex="1" parent="1">
                    <mxGeometry x="360" y="190" width="140" height="70" as="geometry"/>
                </mxCell>
                <mxCell id="43" value="会員登録する・&lt;br&gt;ログインする" style="ellipse;whiteSpace=wrap;html=1;fillColor=none;" vertex="1" parent="1">
                    <mxGeometry x="530" y="190" width="140" height="70" as="geometry"/>
                </mxCell>
                <mxCell id="45" value="プロフィールを&lt;br&gt;更新する" style="ellipse;whiteSpace=wrap;html=1;fillColor=none;" vertex="1" parent="1">
                    <mxGeometry x="785" y="200" width="140" height="70" as="geometry"/>
                </mxCell>
                <mxCell id="46" value="パスワードを変更する" style="ellipse;whiteSpace=wrap;html=1;fillColor=none;" vertex="1" parent="1">
                    <mxGeometry x="955" y="200" width="140" height="70" as="geometry"/>
                </mxCell>
                <mxCell id="47" value="総走行距離など&lt;br&gt;過去のデータを確認する" style="ellipse;whiteSpace=wrap;html=1;fillColor=none;" vertex="1" parent="1">
                    <mxGeometry x="785" y="470" width="140" height="70" as="geometry"/>
                </mxCell>
                <mxCell id="48" value="アルバム・お気に入りスポットを登録・閲覧する" style="ellipse;whiteSpace=wrap;html=1;fillColor=none;" vertex="1" parent="1">
                    <mxGeometry x="955" y="470" width="140" height="70" as="geometry"/>
                </mxCell>
                <mxCell id="49" value="管理者" style="shape=umlActor;verticalLabelPosition=bottom;verticalAlign=top;html=1;fillColor=none;" vertex="1" parent="1">
                    <mxGeometry x="1710" y="170" width="30" height="60" as="geometry"/>
                </mxCell>
                <mxCell id="51" value="他のユーザーのあしあとにコメントする" style="ellipse;whiteSpace=wrap;html=1;fillColor=none;" vertex="1" parent="1">
                    <mxGeometry x="360" y="380" width="140" height="70" as="geometry"/>
                </mxCell>
                <mxCell id="52" value="他のユーザーをフォローする" style="ellipse;whiteSpace=wrap;html=1;fillColor=none;" vertex="1" parent="1">
                    <mxGeometry x="530" y="380" width="140" height="70" as="geometry"/>
                </mxCell>
                <mxCell id="53" value="他のユーザーのあしあとをブックマークする" style="ellipse;whiteSpace=wrap;html=1;fillColor=none;" vertex="1" parent="1">
                    <mxGeometry x="360" y="480" width="140" height="70" as="geometry"/>
                </mxCell>
                <mxCell id="54" value="フォローを管理する" style="ellipse;whiteSpace=wrap;html=1;fillColor=none;" vertex="1" parent="1">
                    <mxGeometry x="785" y="585" width="140" height="70" as="geometry"/>
                </mxCell>
                <mxCell id="55" value="ブックマークを管理する" style="ellipse;whiteSpace=wrap;html=1;fillColor=none;" vertex="1" parent="1">
                    <mxGeometry x="955" y="580" width="140" height="70" as="geometry"/>
                </mxCell>
                <mxCell id="57" value="バッチ機能" style="ellipse;whiteSpace=wrap;html=1;fillColor=none;" vertex="1" parent="1">
                    <mxGeometry x="785" y="670" width="140" height="70" as="geometry"/>
                </mxCell>
                <mxCell id="58" value="" style="rounded=0;whiteSpace=wrap;html=1;fontColor=#FFFFFF;fillColor=none;dashed=1;" vertex="1" parent="1">
                    <mxGeometry x="345" y="370" width="345" height="190" as="geometry"/>
                </mxCell>
                <mxCell id="61" value="" style="rounded=0;whiteSpace=wrap;html=1;fontColor=#FFFFFF;fillColor=none;strokeColor=#FF9999;strokeWidth=3;" vertex="1" parent="1">
                    <mxGeometry x="347.5" y="180" width="345" height="180" as="geometry"/>
                </mxCell>
                <mxCell id="63" value="" style="rounded=0;whiteSpace=wrap;html=1;fontColor=#FFFFFF;fillColor=none;strokeColor=#FF9999;strokeWidth=3;" vertex="1" parent="1">
                    <mxGeometry x="1187.5" y="180" width="345" height="100" as="geometry"/>
                </mxCell>
                <mxCell id="32" value="&lt;font color=&quot;#ffffff&quot;&gt;管理画面&lt;/font&gt;" style="text;html=1;strokeColor=none;fillColor=none;align=center;verticalAlign=middle;whiteSpace=wrap;rounded=0;dashed=1;fontColor=#000000;" vertex="1" parent="1">
                    <mxGeometry x="1305" y="150" width="110" height="30" as="geometry"/>
                </mxCell>
            </root>
        </mxGraphModel>
    </diagram>
</mxfile>